<svg id="visual" viewBox="0 0 900 600" width="900" height="600" xmlns="http://www.w3.org/2000/svg" xmlns:xlink="http://www.w3.org/1999/xlink" version="1.1"><rect x="0" y="0" width="900" height="600" fill="#001220"></rect><path d="M0 396L21.5 391.8C43 387.7 86 379.3 128.8 374.3C171.7 369.3 214.3 367.7 257.2 377.5C300 387.3 343 408.7 385.8 413C428.7 417.3 471.3 404.7 514.2 393.7C557 382.7 600 373.3 642.8 374.3C685.7 375.3 728.3 386.7 771.2 390.3C814 394 857 390 878.5 388L900 386L900 601L878.5 601C857 601 814 601 771.2 601C728.3 601 685.7 601 642.8 601C600 601 557 601 514.2 601C471.3 601 428.7 601 385.8 601C343 601 300 601 257.2 601C214.3 601 171.7 601 128.8 601C86 601 43 601 21.5 601L0 601Z" fill="#fa7268"></path><path d="M0 435L21.5 437.3C43 439.7 86 444.3 128.8 449.3C171.7 454.3 214.3 459.7 257.2 457.2C300 454.7 343 444.3 385.8 443C428.7 441.7 471.3 449.3 514.2 447.7C557 446 600 435 642.8 434C685.7 433 728.3 442 771.2 440.3C814 438.7 857 426.3 878.5 420.2L900 414L900 601L878.5 601C857 601 814 601 771.2 601C728.3 601 685.7 601 642.8 601C600 601 557 601 514.2 601C471.3 601 428.7 601 385.8 601C343 601 300 601 257.2 601C214.3 601 171.7 601 128.8 601C86 601 43 601 21.5 601L0 601Z" fill="#ef5f67"></path><path d="M0 508L21.5 502.5C43 497 86 486 128.8 475C171.7 464 214.3 453 257.2 453.5C300 454 343 466 385.8 474.7C428.7 483.3 471.3 488.7 514.2 488.2C557 487.7 600 481.3 642.8 475.8C685.7 470.3 728.3 465.7 771.2 467.8C814 470 857 479 878.5 483.5L900 488L900 601L878.5 601C857 601 814 601 771.2 601C728.3 601 685.7 601 642.8 601C600 601 557 601 514.2 601C471.3 601 428.7 601 385.8 601C343 601 300 601 257.2 601C214.3 601 171.7 601 128.8 601C86 601 43 601 21.5 601L0 601Z" fill="#e34c67"></path><path d="M0 505L21.5 506.5C43 508 86 511 128.8 515.7C171.7 520.3 214.3 526.7 257.2 522.7C300 518.7 343 504.3 385.8 495.5C428.7 486.7 471.3 483.3 514.2 486.3C557 489.3 600 498.7 642.8 498.8C685.7 499 728.3 490 771.2 491.2C814 492.3 857 503.7 878.5 509.3L900 515L900 601L878.5 601C857 601 814 601 771.2 601C728.3 601 685.7 601 642.8 601C600 601 557 601 514.2 601C471.3 601 428.7 601 385.8 601C343 601 300 601 257.2 601C214.3 601 171.7 601 128.8 601C86 601 43 601 21.5 601L0 601Z" fill="#d53867"></path><path d="M0 569L21.5 564.7C43 560.3 86 551.7 128.8 547.3C171.7 543 214.3 543 257.2 544.8C300 546.7 343 550.3 385.8 547.7C428.7 545 471.3 536 514.2 531.3C557 526.7 600 526.3 642.8 527.2C685.7 528 728.3 530 771.2 535.8C814 541.7 857 551.3 878.5 556.2L900 561L900 601L878.5 601C857 601 814 601 771.2 601C728.3 601 685.7 601 642.8 601C600 601 557 601 514.2 601C471.3 601 428.7 601 385.8 601C343 601 300 601 257.2 601C214.3 601 171.7 601 128.8 601C86 601 43 601 21.5 601L0 601Z" fill="#c62368"></path></svg>